<svg xmlns="http://www.w3.org/2000/svg" width="1024" height="1024" viewBox="0 0 1024 1024">
<g>
<path d="M 478.00 520.95 C477.99,521.83 468.75,521.92 465.98,521.07 C464.60,520.64 460.10,518.36 455.98,516.00 C451.87,513.63 445.57,510.06 441.99,508.06 C434.19,503.69 430.29,501.01 423.00,495.01 C419.98,492.51 414.89,488.49 411.70,486.07 C402.85,479.37 382.88,458.04 375.05,446.93 C366.86,435.32 365.00,431.95 365.00,428.75 C365.00,427.46 364.47,425.87 363.82,425.22 C363.18,424.58 362.29,421.90 361.85,419.27 C361.41,416.65 359.93,409.33 358.56,403.00 C353.77,380.86 356.10,357.65 364.17,347.12 C365.18,345.80 366.00,343.45 366.00,341.88 C366.00,338.99 366.55,336.12 369.50,323.50 C371.29,315.89 378.33,299.46 383.20,291.53 C385.23,288.23 386.56,284.35 387.17,280.03 C388.59,269.97 392.10,256.08 394.74,250.07 C398.67,241.15 408.71,228.00 411.59,228.00 C413.43,228.00 415.62,232.23 415.21,235.00 C414.08,242.52 414.03,265.68 415.13,274.46 C416.18,282.86 416.11,288.77 414.65,311.96 C413.70,327.11 412.69,340.85 412.40,342.50 C411.91,345.30 412.25,345.69 417.40,348.35 C420.43,349.92 424.17,352.84 425.71,354.85 C428.38,358.34 428.50,359.00 428.52,369.69 C428.54,375.84 428.81,381.14 429.13,381.46 C429.45,381.79 432.35,381.36 435.57,380.52 C438.79,379.69 443.94,379.00 447.02,379.00 C447.64,379.00 448.22,379.01 448.77,379.02 C450.72,379.07 452.17,379.10 453.25,378.49 C456.63,376.58 456.47,368.43 457.19,334.90 C457.78,308.06 457.75,292.74 457.11,291.35 C456.57,290.17 454.53,288.67 452.57,288.02 C446.96,286.17 448.36,285.00 456.19,285.00 C460.15,285.00 467.54,284.26 472.62,283.35 C480.41,281.96 482.36,281.91 485.02,283.01 C489.11,284.70 487.74,285.42 477.64,286.88 C464.69,288.76 462.99,290.49 461.03,303.82 C458.90,318.36 460.39,371.78 463.05,376.09 C463.68,377.10 473.73,377.33 511.17,377.21 C537.20,377.13 558.78,377.05 559.11,377.03 C559.45,377.01 560.46,374.64 561.35,371.75 C563.66,364.27 564.16,301.56 561.95,295.55 C559.98,290.19 556.17,288.19 545.91,287.14 C537.53,286.27 530.00,283.93 530.00,282.18 C530.00,280.94 542.67,281.79 552.50,283.69 C560.24,285.19 571.49,285.11 589.00,283.42 C596.08,282.74 593.60,284.47 586.14,285.42 C577.66,286.49 568.67,289.08 567.23,290.87 C566.17,292.18 566.02,300.07 566.47,331.50 C566.78,352.95 567.38,372.08 567.80,374.00 L 568.57 377.50 L 577.54 378.67 C582.47,379.32 588.46,379.88 590.87,379.92 C594.98,380.00 595.19,379.87 594.44,377.75 C593.41,374.81 593.68,365.89 594.96,361.17 C596.18,356.62 602.57,349.95 608.09,347.46 C611.83,345.77 612.11,345.39 611.57,342.54 C611.10,340.04 608.07,293.54 608.02,287.97 C608.01,287.13 606.54,285.87 604.75,285.17 L 601.50 283.91 L 604.61 282.56 C606.70,281.66 607.94,280.27 608.38,278.36 C609.72,272.47 610.27,242.59 609.11,238.34 C607.38,232.00 602.08,224.88 596.24,221.04 C592.35,218.49 591.36,217.38 592.41,216.79 C593.95,215.93 597.00,216.73 597.00,218.00 C597.00,218.43 598.53,219.07 600.41,219.42 C604.04,220.10 608.20,224.07 613.81,232.22 C615.57,234.78 617.88,237.14 618.95,237.48 C620.02,237.82 621.16,238.94 621.49,239.96 C621.81,240.99 623.40,243.49 625.02,245.53 C630.30,252.17 632.86,258.85 634.03,269.00 C635.41,281.01 636.43,284.24 640.59,289.68 C644.20,294.42 646.55,299.25 650.94,311.00 C653.73,318.46 654.47,321.49 657.55,338.27 C658.77,344.90 660.00,348.29 662.58,352.12 C665.71,356.77 666.00,357.83 666.00,364.65 C666.00,369.33 665.44,373.18 664.49,375.01 C663.08,377.74 663.12,377.99 665.09,379.05 C667.92,380.56 667.74,382.59 662.34,409.00 C657.93,430.59 656.61,435.09 653.10,440.50 C651.67,442.70 650.28,445.02 650.00,445.65 C648.58,448.94 631.45,468.27 621.42,477.91 C607.73,491.07 596.02,500.32 586.50,505.50 C582.65,507.60 578.08,510.35 576.35,511.63 C572.45,514.50 566.82,515.45 561.25,514.18 C558.64,513.59 555.55,513.56 553.25,514.11 C551.19,514.61 541.62,515.96 532.00,517.11 C514.29,519.24 500.85,519.24 484.00,517.11 C477.31,516.26 474.64,517.04 476.80,519.20 C477.46,519.86 478.00,520.65 478.00,520.95 ZM 455.50 453.98 C483.91,455.08 567.18,454.41 584.50,452.95 C607.89,450.98 610.16,448.53 610.82,424.55 C611.34,405.51 610.29,400.37 604.65,394.21 C595.61,384.36 590.01,383.64 522.00,383.56 C469.00,383.50 443.66,384.22 434.50,386.05 C423.63,388.23 416.09,395.44 413.96,405.70 C413.21,409.30 412.93,416.88 413.20,425.97 C413.68,442.09 414.60,445.16 420.16,449.11 C424.44,452.16 430.71,453.03 455.50,453.98 ZM 490.90 675.63 L 495.50 676.76 L 488.50 676.70 C480.48,676.63 477.33,676.46 456.00,674.96 C391.83,670.44 335.71,656.02 320.67,640.20 C316.88,636.21 315.06,630.68 316.06,626.23 C317.84,618.35 330.32,609.61 348.78,603.32 C355.59,601.00 357.21,600.74 357.92,601.88 C359.29,604.09 369.34,601.41 368.71,599.00 C368.31,597.48 370.23,596.82 382.88,594.07 C399.53,590.46 427.03,585.95 431.50,586.11 C433.98,586.20 433.71,586.38 430.00,587.18 C418.50,589.66 393.27,597.33 385.32,600.76 C380.47,602.86 373.66,606.50 370.19,608.87 C355.95,618.55 356.37,628.06 371.48,637.92 C390.56,650.38 423.72,658.05 473.88,661.61 C498.98,663.39 541.34,663.11 562.50,661.02 C619.65,655.37 660.55,641.53 664.90,626.36 C665.95,622.68 664.15,616.86 660.89,613.39 C655.05,607.17 637.81,598.88 621.22,594.31 C615.87,592.84 611.07,591.27 610.55,590.82 C608.85,589.36 614.18,589.95 620.93,591.97 C624.54,593.05 633.27,595.52 640.33,597.46 C660.47,603.00 672.34,608.38 679.38,615.18 L 685.27 620.86 L 684.76 626.15 C684.30,630.90 683.77,631.88 679.67,635.60 C677.14,637.88 672.23,641.13 668.74,642.81 C663.09,645.53 658.47,647.14 638.00,653.50 C634.97,654.44 629.80,655.55 626.50,655.97 C623.20,656.39 613.30,657.88 604.50,659.29 C595.70,660.70 582.20,662.37 574.50,663.01 C566.80,663.64 556.06,664.58 550.64,665.08 C545.22,665.59 533.10,666.00 523.71,666.00 C504.93,666.00 489.63,667.53 487.93,669.58 C485.31,672.74 486.16,674.47 490.90,675.63 ZM 199.24 816.15 C193.89,818.28 191.76,818.46 168.00,818.79 L 142.50 819.14 L 142.58 785.82 C142.63,767.49 142.74,747.18 142.83,740.67 L 143.00 728.85 L 193.50 729.50 L 198.97 732.50 C212.94,740.16 215.16,758.52 203.39,768.89 L 198.92 772.82 L 202.28 773.93 C209.57,776.33 215.02,785.04 214.98,794.22 C214.94,804.25 209.26,812.16 199.24,816.15 ZM 273.22 816.21 C267.50,819.03 265.33,819.54 258.03,819.76 C248.25,820.07 242.31,818.40 234.86,813.26 C221.63,804.13 217.29,785.02 224.92,769.52 C230.67,757.83 240.60,751.89 255.50,751.22 C266.97,750.70 273.61,752.96 281.34,760.03 C288.83,766.87 292.35,774.87 292.34,785.00 C292.32,799.21 285.66,810.09 273.22,816.21 ZM 344.14 818.57 C338.40,820.31 326.70,820.30 321.95,818.55 C308.12,813.46 300.68,805.03 298.01,791.43 C295.05,776.41 303.51,760.27 317.82,753.66 C321.68,751.88 324.35,751.50 333.00,751.50 C342.27,751.50 344.16,751.81 349.15,754.15 C356.34,757.52 362.48,763.66 365.85,770.85 C369.50,778.63 369.66,791.96 366.20,799.50 C362.21,808.18 353.47,815.74 344.14,818.57 ZM 670.61 818.52 C665.26,820.11 651.80,820.34 645.91,818.95 C639.44,817.42 631.94,814.04 625.88,809.92 L 619.93 805.88 L 625.14 799.19 C628.01,795.51 630.69,792.11 631.09,791.63 C631.50,791.16 633.35,791.93 635.21,793.34 C640.44,797.34 649.46,801.09 655.25,801.69 C664.88,802.68 671.68,797.68 669.42,791.26 C668.17,787.70 664.34,785.63 653.00,782.42 C642.21,779.35 633.53,775.31 630.30,771.84 C626.65,767.93 624.67,762.01 624.63,754.93 C624.51,735.31 642.54,723.77 666.14,728.37 C673.79,729.86 684.52,734.51 686.87,737.35 C688.38,739.16 687.12,741.94 679.35,753.86 C679.22,754.06 677.82,753.29 676.23,752.16 C667.48,745.94 653.60,743.67 648.31,747.61 C644.98,750.08 644.21,754.15 646.43,757.54 C647.63,759.36 650.85,760.83 659.76,763.62 C683.97,771.18 689.71,776.30 690.78,791.26 C691.22,797.34 690.96,798.64 688.11,804.43 C684.54,811.67 679.21,815.97 670.61,818.52 ZM 397.00 809.63 L 397.00 819.00 L 378.00 819.00 L 378.00 725.00 L 397.00 725.00 L 397.00 750.08 C397.00,763.88 397.36,775.02 397.81,774.83 C398.26,774.65 403.26,769.44 408.94,763.25 L 419.26 752.00 L 442.20 752.00 L 437.21 757.75 C434.47,760.91 429.02,767.08 425.11,771.45 C421.20,775.83 418.00,779.69 418.00,780.03 C418.00,780.37 423.62,788.92 430.50,799.04 C437.38,809.16 443.00,817.79 443.00,818.22 C443.00,818.65 437.94,818.98 431.75,818.96 L 420.50 818.91 L 413.50 807.48 C412.66,806.11 411.90,804.86 411.21,803.73 C406.53,796.03 404.97,793.48 403.62,793.58 C402.76,793.65 401.97,794.82 400.50,796.43 C397.02,800.23 397.00,800.31 397.00,809.63 ZM 801.73 818.47 C797.57,820.20 787.05,820.38 782.50,818.79 C773.74,815.73 769.00,808.69 769.00,798.74 C769.00,793.47 769.49,791.62 771.86,787.88 C776.29,780.90 782.15,778.75 798.25,778.20 C812.20,777.72 812.40,777.61 809.43,771.87 C806.11,765.44 796.24,764.23 786.11,769.03 C782.59,770.69 779.60,771.93 779.46,771.77 C779.32,771.62 777.59,768.81 775.62,765.51 L 772.03 759.53 L 776.26 757.29 C793.47,748.21 814.31,748.96 823.37,758.98 C829.16,765.39 830.00,770.12 830.00,796.18 L 830.00 819.00 L 812.00 819.00 L 812.00 811.90 L 808.70 814.42 C806.88,815.80 803.74,817.63 801.73,818.47 ZM 748.00 816.82 C743.49,818.95 740.80,819.46 733.00,819.68 C727.78,819.82 722.38,819.57 721.00,819.12 C712.18,816.23 703.48,808.60 699.97,800.68 C698.96,798.38 697.81,793.03 697.43,788.78 C696.83,782.19 697.07,780.00 699.07,773.78 C701.00,767.79 702.39,765.51 706.96,760.88 C713.94,753.78 720.82,751.00 731.36,751.00 C741.77,751.00 747.34,753.19 754.07,759.93 C760.64,766.49 762.87,771.90 763.71,783.25 L 764.29 791.00 L 716.87 791.00 L 717.54 793.25 C720.97,804.75 734.95,808.25 744.40,799.96 C746.25,798.33 748.23,797.00 748.80,797.00 C749.37,797.00 752.13,799.59 754.93,802.75 L 760.02 808.50 L 756.76 811.36 C754.97,812.94 751.03,815.39 748.00,816.82 ZM 879.36 817.17 C872.50,820.21 861.77,820.69 856.50,818.18 C847.30,813.81 846.00,809.91 846.00,786.59 L 846.00 768.11 L 841.25 767.80 L 836.50 767.50 L 836.50 752.50 L 846.16 751.88 L 845.58 733.50 L 855.29 733.21 L 865.00 732.93 L 865.00 752.00 L 881.00 752.00 L 881.00 767.00 L 865.00 767.00 L 865.00 783.35 C865.00,797.91 865.20,799.87 866.83,801.35 C869.10,803.40 872.61,803.45 876.40,801.48 C877.99,800.64 879.37,800.08 879.47,800.23 C879.56,800.38 880.33,802.97 881.18,806.00 C882.03,809.03 883.06,812.29 883.47,813.26 C884.08,814.67 883.28,815.43 879.36,817.17 ZM 618.67 451.33 C619.03,451.70 622.49,452.00 626.35,452.00 C634.64,452.00 638.15,450.11 642.42,443.37 C646.09,437.57 646.80,431.33 647.16,402.00 L 647.46 377.50 L 639.74 377.21 C630.57,376.86 625.19,378.13 621.05,381.62 L 618.00 384.18 L 618.00 417.42 C618.00,435.71 618.30,450.97 618.67,451.33 ZM 386.22 449.39 C389.04,451.62 390.48,451.98 396.50,451.97 C400.35,451.97 404.08,451.60 404.80,451.15 C406.82,449.86 406.10,380.29 404.05,379.03 C399.61,376.29 381.95,375.56 378.06,377.96 C376.58,378.88 376.55,397.65 377.99,422.82 C379.01,440.71 380.24,444.68 386.22,449.39 ZM 419.35 370.00 C422.82,371.40 423.50,370.60 423.46,365.19 C423.43,361.21 422.89,359.51 421.04,357.54 C419.73,356.15 418.45,355.22 418.20,355.47 C417.94,355.72 415.66,354.71 413.12,353.21 C408.71,350.62 407.79,350.48 392.60,350.16 C371.01,349.70 368.61,350.13 365.37,355.01 C363.33,358.09 362.90,359.75 363.28,363.03 C363.54,365.30 364.28,367.68 364.93,368.33 C365.73,369.14 373.07,369.59 388.50,369.80 C407.74,370.06 411.26,369.88 413.36,368.50 C415.10,367.36 416.02,367.22 416.51,368.02 C416.89,368.63 418.17,369.53 419.35,370.00 ZM 600.91 369.25 C601.05,370.44 605.48,370.12 606.77,368.83 C607.67,367.93 608.55,367.93 610.52,368.83 C612.24,369.61 619.94,369.98 633.80,369.93 C658.13,369.84 660.31,369.24 660.76,362.43 C661.10,357.28 659.28,353.90 654.99,351.75 C650.23,349.37 620.90,349.18 615.35,351.50 C613.37,352.33 610.99,353.00 610.04,353.00 C609.10,353.00 606.70,354.46 604.70,356.25 C601.61,359.02 601.05,360.17 600.94,364.00 C600.87,366.48 600.86,368.84 600.91,369.25 ZM 252.53 802.45 C258.96,804.66 266.30,801.84 270.02,795.73 C276.09,785.75 271.38,771.23 261.09,768.14 C250.66,765.02 241.08,773.20 241.02,785.28 C240.98,793.79 245.07,799.88 252.53,802.45 ZM 328.50 802.46 C339.01,806.06 349.00,797.86 349.00,785.65 C349.00,776.95 343.81,769.65 336.42,767.98 C330.93,766.74 327.29,767.81 322.99,771.90 C313.48,780.96 316.62,798.40 328.50,802.46 ZM 172.25 801.23 C188.32,801.69 192.19,800.44 194.07,794.16 C195.02,790.98 194.94,789.78 193.59,787.18 C190.93,782.04 187.66,781.00 174.05,781.00 L 162.00 781.00 L 162.00 800.93 ZM 162.21 755.75 L 161.92 765.00 L 173.33 765.00 C186.13,765.00 189.20,763.75 190.33,758.08 C192.07,749.42 186.21,745.73 171.49,746.21 L 162.50 746.50 ZM 792.17 805.31 C794.86,806.38 801.18,805.96 803.97,804.52 C808.05,802.41 811.00,797.82 811.00,793.60 L 811.00 790.00 L 802.95 790.00 C793.61,790.00 789.70,791.55 788.20,795.86 C787.39,798.18 787.55,799.38 789.01,801.78 C790.01,803.43 791.44,805.02 792.17,805.31 ZM 717.52 776.75 L 716.87 779.00 L 744.00 779.00 L 744.00 776.53 C744.00,775.18 742.62,772.50 740.94,770.59 C733.97,762.65 720.57,766.17 717.52,776.75 ZM 513.03 202.41 C500.41,204.16 499.99,204.17 491.75,202.76 C480.20,200.78 486.69,198.28 504.82,197.73 C519.51,197.28 527.58,198.15 529.86,200.44 C531.19,201.77 530.98,201.87 527.92,201.37 C526.03,201.07 519.33,201.53 513.03,202.41 ZM 322.68 625.25 C322.34,626.21 322.35,627.00 322.70,627.00 C323.40,627.00 334.26,619.09 339.34,614.89 C341.08,613.45 344.08,611.47 346.00,610.48 C347.92,609.49 348.95,608.49 348.27,608.26 C347.59,608.03 342.71,609.99 337.42,612.62 C328.30,617.15 324.34,620.54 322.68,625.25 ZM 560.22 209.99 L 563.50 211.99 L 560.50 211.88 C558.85,211.81 555.16,211.34 552.31,210.81 C548.44,210.11 547.25,209.50 547.66,208.43 C547.97,207.64 548.62,207.00 549.11,207.00 C549.60,207.00 550.00,206.55 550.00,206.00 C550.00,205.45 549.13,205.00 548.06,205.00 C545.71,205.00 544.40,203.20 545.76,201.84 C546.40,201.20 547.72,201.76 549.58,203.49 C551.17,204.96 553.18,205.92 554.15,205.67 C555.10,205.42 556.11,205.84 556.40,206.60 C556.69,207.37 558.41,208.89 560.22,209.99 ZM 516.50 283.91 C519.55,284.57 517.54,284.79 508.00,284.85 C498.15,284.92 495.92,284.70 497.48,283.79 C499.67,282.52 510.30,282.59 516.50,283.91 ZM 479.88 204.10 C478.15,205.19 473.91,205.23 472.22,204.16 C470.75,203.22 474.81,201.00 477.99,201.00 C480.45,201.00 481.65,202.97 479.88,204.10 ZM 582.32 211.34 C581.39,212.28 578.87,212.04 576.25,210.78 C573.00,209.21 573.49,208.00 577.38,208.00 C580.66,208.00 583.65,210.02 582.32,211.34 ZM 537.00 207.06 L 543.50 208.72 L 538.00 208.61 C534.97,208.55 531.15,208.26 529.50,207.96 C526.74,207.46 526.66,207.34 528.50,206.40 C529.94,205.68 532.33,205.86 537.00,207.06 ZM 603.00 588.13 C603.00,589.23 601.73,589.12 595.50,587.52 C592.29,586.70 591.40,586.20 593.00,586.13 C596.93,585.96 603.00,587.17 603.00,588.13 ZM 469.57 209.88 C468.90,210.98 465.30,211.97 464.59,211.25 C463.54,210.21 465.16,209.00 467.62,209.00 C468.99,209.00 469.87,209.40 469.57,209.88 Z" fill="rgb(30,40,67)"/>
<path d="M 552.47 638.98 C533.32,641.70 521.65,641.66 516.46,638.86 C512.95,636.96 511.04,636.74 499.68,636.86 C491.34,636.95 486.10,636.58 484.68,635.80 C482.87,634.80 469.42,630.78 464.00,629.62 C463.17,629.44 461.58,629.90 460.45,630.63 C458.53,631.88 458.39,631.74 458.08,628.23 C457.90,626.18 457.70,622.92 457.62,621.00 C457.55,619.08 457.13,616.94 456.69,616.25 C456.17,615.44 456.43,615.00 457.44,615.00 C458.30,615.00 459.00,614.56 459.00,614.02 C459.00,612.10 468.83,608.00 473.41,608.00 C475.87,608.00 478.11,607.63 478.39,607.18 C478.67,606.73 472.98,601.21 465.75,594.93 C438.42,571.17 421.63,554.46 399.98,529.48 C356.65,479.50 328.42,430.19 320.03,389.86 C307.19,328.09 327.72,261.05 373.43,215.45 C398.16,190.77 427.69,174.12 461.86,165.57 C479.37,161.19 491.08,159.88 513.50,159.79 C531.86,159.72 536.32,160.04 549.00,162.28 C571.89,166.34 596.62,175.43 615.27,186.62 C644.35,204.07 668.62,230.02 685.79,262.00 C700.95,290.23 710.26,330.18 708.52,359.50 C706.09,400.22 693.80,433.21 664.77,476.91 C634.94,521.82 597.60,562.37 546.69,605.14 L 543.88 607.50 L 547.69 607.37 C551.61,607.23 561.60,608.15 575.29,609.91 C585.72,611.25 592.89,615.05 594.87,620.28 C596.22,623.85 596.17,624.19 593.98,626.52 C589.65,631.13 573.39,636.01 552.47,638.98 ZM 478.00 520.95 C478.00,520.65 477.46,519.86 476.80,519.20 C474.64,517.04 477.31,516.26 484.00,517.11 C500.85,519.24 514.29,519.24 532.00,517.11 C541.62,515.96 551.19,514.61 553.25,514.11 C555.55,513.56 558.64,513.59 561.25,514.18 C566.82,515.45 572.45,514.50 576.35,511.63 C578.08,510.35 582.65,507.60 586.50,505.50 C596.02,500.32 607.73,491.07 621.42,477.91 C631.45,468.27 648.58,448.94 650.00,445.65 C650.28,445.02 651.67,442.70 653.10,440.50 C656.61,435.09 657.93,430.59 662.34,409.00 C667.74,382.59 667.92,380.56 665.09,379.05 C663.12,377.99 663.08,377.74 664.49,375.01 C665.44,373.18 666.00,369.33 666.00,364.65 C666.00,357.83 665.71,356.77 662.58,352.12 C660.00,348.29 658.77,344.90 657.55,338.27 C654.47,321.49 653.73,318.46 650.94,311.00 C646.55,299.25 644.20,294.42 640.59,289.68 C636.43,284.24 635.41,281.01 634.03,269.00 C632.86,258.85 630.30,252.17 625.02,245.53 C623.40,243.49 621.81,240.99 621.49,239.96 C621.16,238.94 620.02,237.82 618.95,237.48 C617.88,237.14 615.57,234.78 613.81,232.22 C608.20,224.07 604.04,220.10 600.41,219.42 C598.53,219.07 597.00,218.43 597.00,218.00 C597.00,216.73 593.95,215.93 592.41,216.79 C591.36,217.38 592.35,218.49 596.24,221.04 L 596.31 221.09 C592.31,218.58 587.40,216.82 581.18,215.52 C570.31,213.26 568.00,213.43 568.00,216.53 L 568.00 216.64 C568.00,217.43 568.00,217.99 568.23,218.43 C568.82,219.51 570.86,219.81 577.99,220.91 C586.66,222.26 588.45,223.38 584.65,225.11 C583.19,225.78 582.00,226.88 582.00,227.56 C582.00,228.86 587.02,231.00 590.04,231.00 C592.23,231.00 593.51,227.94 591.78,226.85 C589.82,225.60 591.84,225.85 594.32,227.16 C600.32,230.34 604.70,239.48 606.05,251.67 C606.59,256.53 607.26,261.14 607.55,261.92 C607.92,262.93 608.37,263.03 609.14,262.26 C609.33,262.07 609.49,261.57 609.62,260.78 C609.41,268.47 608.97,275.76 608.38,278.36 C607.94,280.27 606.70,281.66 604.61,282.56 L 601.50 283.91 L 604.75 285.17 C605.13,285.32 605.50,285.50 605.84,285.68 L 604.26 285.39 C600.36,284.66 587.08,285.65 583.72,286.93 C581.76,287.67 581.97,287.86 585.50,288.46 C604.34,291.67 603.43,290.51 604.98,313.26 C605.56,321.64 606.29,330.41 606.63,332.75 C607.04,335.65 607.72,337.00 608.77,337.00 C610.13,337.00 610.23,334.83 609.63,318.85 C609.54,316.54 609.45,314.15 609.34,311.78 C610.24,325.89 611.31,341.14 611.57,342.54 C612.11,345.39 611.83,345.77 608.09,347.46 C602.57,349.95 596.18,356.62 594.96,361.17 C593.68,365.89 593.41,374.81 594.44,377.75 C595.19,379.87 594.98,380.00 590.87,379.92 C588.46,379.88 582.47,379.32 577.54,378.67 L 568.57 377.50 L 567.80 374.00 C567.38,372.08 566.78,352.95 566.47,331.50 C566.02,300.07 566.17,292.18 567.23,290.87 C568.67,289.08 577.66,286.49 586.14,285.42 C593.60,284.47 596.08,282.74 589.00,283.42 C571.49,285.11 560.24,285.19 552.50,283.69 C542.67,281.79 530.00,280.94 530.00,282.18 C530.00,283.93 537.53,286.27 545.91,287.14 C549.98,287.56 553.04,288.13 555.37,288.99 C548.61,286.75 535.22,286.03 509.00,286.02 C485.49,286.02 473.98,286.67 468.20,289.06 C470.42,288.08 473.44,287.49 477.64,286.88 C487.74,285.42 489.11,284.70 485.02,283.01 C482.36,281.91 480.41,281.96 472.62,283.35 C467.54,284.26 460.15,285.00 456.19,285.00 C448.36,285.00 446.96,286.17 452.57,288.02 C454.53,288.67 456.57,290.17 457.11,291.35 C457.75,292.74 457.78,308.06 457.19,334.90 C456.47,368.43 456.63,376.58 453.25,378.49 C452.17,379.10 450.72,379.07 448.77,379.02 C448.22,379.01 447.64,379.00 447.02,379.00 C443.94,379.00 438.79,379.69 435.57,380.52 C432.35,381.36 429.45,381.79 429.13,381.46 C428.81,381.14 428.54,375.84 428.52,369.69 C428.50,359.00 428.38,358.34 425.71,354.85 C424.17,352.84 420.43,349.92 417.40,348.35 C412.25,345.69 411.91,345.30 412.40,342.50 C412.69,340.85 413.70,327.11 414.65,311.96 C416.11,288.77 416.18,282.86 415.13,274.46 C414.46,269.10 414.22,258.39 414.38,249.14 C414.40,249.39 414.42,249.64 414.43,249.88 C414.76,254.07 415.15,260.20 415.30,263.50 C415.46,266.80 416.15,271.41 416.83,273.75 C418.31,278.80 420.52,279.59 419.62,274.75 C419.29,272.96 418.72,266.96 418.37,261.41 C417.64,249.99 419.73,237.63 423.20,232.73 C425.50,229.49 435.43,223.88 433.59,226.86 C432.80,228.14 443.92,229.04 448.28,228.05 C454.13,226.73 455.14,225.42 454.80,219.59 C454.52,214.87 454.30,214.48 451.75,214.18 C447.07,213.65 433.14,217.85 427.38,221.54 C421.52,225.28 416.66,231.84 414.90,238.37 C414.87,238.47 414.84,238.59 414.82,238.71 C414.93,237.25 415.06,235.99 415.21,235.00 C415.62,232.23 413.43,228.00 411.59,228.00 C408.71,228.00 398.67,241.15 394.74,250.07 C392.10,256.08 388.59,269.97 387.17,280.03 C386.56,284.35 385.23,288.23 383.20,291.53 C378.33,299.46 371.29,315.89 369.50,323.50 C366.55,336.12 366.00,338.99 366.00,341.88 C366.00,343.45 365.18,345.80 364.17,347.12 C356.10,357.65 353.77,380.86 358.56,403.00 C359.93,409.33 361.41,416.65 361.85,419.27 C362.29,421.90 363.18,424.58 363.82,425.22 C364.47,425.87 365.00,427.46 365.00,428.75 C365.00,431.95 366.86,435.32 375.05,446.93 C382.88,458.04 402.85,479.37 411.70,486.07 C414.89,488.49 419.98,492.51 423.00,495.01 C430.29,501.01 434.19,503.69 441.99,508.06 C445.57,510.06 451.87,513.63 455.98,516.00 C460.10,518.36 464.60,520.64 465.98,521.07 C468.75,521.92 477.99,521.83 478.00,520.95 ZM 455.50 453.98 C430.71,453.03 424.44,452.16 420.16,449.11 C414.60,445.16 413.68,442.09 413.20,425.97 C413.07,421.71 413.07,417.77 413.17,414.43 C413.24,415.40 413.42,416.00 413.74,416.00 C414.31,416.00 415.10,417.01 415.51,418.25 C416.05,419.92 416.44,418.81 417.02,413.90 C417.91,406.43 420.72,400.15 424.53,397.16 C432.08,391.21 441.17,390.49 511.50,390.22 C562.19,390.03 584.07,390.79 592.25,393.05 C597.90,394.60 605.65,402.41 607.85,408.75 C609.74,414.21 610.62,415.72 610.90,413.63 C610.97,416.68 610.94,420.26 610.82,424.55 C610.16,448.53 607.89,450.98 584.50,452.95 C567.18,454.41 483.91,455.08 455.50,453.98 ZM 460.73 336.60 C461.35,343.33 461.53,343.91 461.99,340.50 C462.32,338.07 463.01,336.60 463.76,336.75 C464.56,336.91 465.02,335.67 465.06,333.25 C465.29,319.79 466.91,301.08 468.05,298.67 C471.10,292.23 482.05,290.06 511.50,290.08 C532.97,290.09 545.73,291.31 550.66,293.83 C556.78,296.95 557.69,299.83 558.95,320.19 C559.63,331.13 560.57,338.88 561.42,340.50 C562.58,342.74 562.82,341.75 563.36,330.12 C563.29,348.41 562.57,367.80 561.35,371.75 C560.46,374.64 559.45,377.01 559.11,377.03 C558.78,377.05 537.20,377.13 511.17,377.21 C473.73,377.33 463.68,377.10 463.05,376.09 C461.09,372.90 459.76,342.87 460.06,321.55 C460.07,326.58 460.28,331.74 460.73,336.60 ZM 490.90 675.63 C486.16,674.47 485.31,672.74 487.93,669.58 C489.63,667.53 504.93,666.00 523.71,666.00 C533.10,666.00 545.22,665.59 550.64,665.08 C556.06,664.58 566.80,663.64 574.50,663.01 C582.20,662.37 595.70,660.70 604.50,659.29 C613.30,657.88 623.20,656.39 626.50,655.97 C629.80,655.55 634.97,654.44 638.00,653.50 C658.47,647.14 663.09,645.53 668.74,642.81 C672.23,641.13 677.14,637.88 679.67,635.60 C683.77,631.88 684.30,630.90 684.76,626.15 L 685.27 620.86 L 679.38 615.18 C672.34,608.38 660.47,603.00 640.33,597.46 C633.27,595.52 624.54,593.05 620.93,591.97 C614.18,589.95 608.85,589.36 610.55,590.82 C610.89,591.11 613.00,591.86 615.89,592.76 C612.92,591.94 609.65,591.08 606.00,590.14 C604.04,589.63 602.21,589.15 600.57,588.70 C602.50,589.04 603.00,588.82 603.00,588.13 C603.00,587.17 596.93,585.96 593.00,586.13 C592.77,586.14 592.59,586.16 592.46,586.19 C592.36,586.12 592.38,586.08 592.53,586.07 C600.70,585.78 643.53,593.18 661.50,598.00 C676.60,602.05 693.54,609.24 700.79,614.69 C705.76,618.43 709.00,624.20 709.00,629.33 C709.00,640.11 695.88,649.47 668.44,658.29 C642.98,666.47 597.66,673.70 557.50,676.00 C546.61,676.62 516.47,676.92 495.48,676.76 ZM 436.04 544.13 C438.27,545.61 439.98,545.12 439.97,543.00 C439.96,542.13 433.02,534.50 432.23,534.50 C431.17,534.50 405.43,507.54 395.57,496.09 C372.72,469.57 349.41,431.04 340.14,404.49 C334.24,387.60 330.20,358.43 331.43,341.71 C332.96,320.97 340.26,293.19 348.85,275.43 C362.59,247.02 386.76,218.89 412.00,201.94 C421.86,195.33 445.40,183.74 455.40,180.59 C477.96,173.48 501.64,170.98 528.12,172.93 C539.62,173.78 546.35,173.88 548.00,173.24 C550.22,172.38 549.68,172.08 543.00,170.51 C533.22,168.20 501.20,167.28 487.38,168.91 C458.18,172.35 432.20,181.82 408.00,197.85 C403.33,200.95 398.83,203.77 398.00,204.12 C394.96,205.41 377.82,221.33 371.05,229.15 C347.72,256.10 331.89,290.67 326.45,326.50 C321.82,357.08 325.15,386.65 336.53,415.73 C342.94,432.13 354.40,453.68 362.69,464.96 C363.69,466.31 366.53,470.37 369.01,473.98 C378.42,487.71 394.09,506.09 410.00,522.07 C425.52,537.65 430.59,542.39 433.91,544.44 C434.95,545.09 435.09,544.95 434.45,543.90 C433.81,542.87 434.23,542.93 436.04,544.13 ZM 386.22 449.39 C383.62,447.34 381.92,445.43 380.74,442.45 C382.81,446.32 383.33,445.47 382.46,439.75 C381.48,433.33 381.28,429.75 380.50,405.00 C379.86,384.50 379.69,383.00 378.03,383.00 C377.21,383.00 376.91,389.04 376.98,397.28 C376.79,385.85 377.15,378.53 378.06,377.96 C381.95,375.56 399.61,376.29 404.05,379.03 C406.10,380.29 406.82,449.86 404.80,451.15 C404.08,451.60 400.35,451.97 396.50,451.97 C390.48,451.98 389.04,451.62 386.22,449.39 ZM 618.67 451.33 C618.30,450.97 618.00,435.71 618.00,417.42 L 618.00 384.18 L 621.05 381.62 C625.19,378.13 630.57,376.86 639.74,377.21 L 647.46 377.50 L 647.32 388.60 C647.25,382.17 646.80,382.03 645.50,382.21 C643.56,382.49 643.49,383.37 643.23,410.34 C643.02,432.44 643.23,438.09 644.23,437.76 C644.62,437.63 644.97,437.16 645.26,436.30 C644.60,439.32 643.68,441.37 642.42,443.37 C638.15,450.11 634.64,452.00 626.35,452.00 C622.49,452.00 619.03,451.70 618.67,451.33 ZM 560.22 209.99 C558.41,208.89 556.69,207.37 556.40,206.60 C556.11,205.84 555.10,205.42 554.15,205.67 C553.18,205.92 551.17,204.96 549.58,203.49 C547.72,201.76 546.40,201.20 545.76,201.84 C544.40,203.20 545.71,205.00 548.06,205.00 C549.13,205.00 550.00,205.45 550.00,206.00 C550.00,206.55 549.60,207.00 549.11,207.00 C548.62,207.00 547.97,207.64 547.66,208.43 C547.35,209.26 547.98,209.81 550.06,210.34 C534.20,208.31 509.07,207.54 490.00,208.90 C475.08,209.96 460.55,212.12 459.19,213.48 C458.90,213.77 458.46,216.48 458.21,219.50 C458.19,219.72 458.17,219.94 458.15,220.14 C457.96,222.39 457.85,223.75 458.47,224.40 C459.42,225.39 462.07,224.75 468.76,223.14 C469.16,223.04 469.58,222.94 470.01,222.84 C475.76,221.45 479.00,220.19 479.00,219.34 C479.00,218.60 478.21,217.94 477.25,217.87 C476.29,217.81 477.52,217.38 480.00,216.92 C488.71,215.31 525.03,214.69 539.00,215.91 C552.13,217.06 566.07,219.78 559.60,219.93 C556.70,220.00 556.70,220.01 558.60,222.12 C559.64,223.28 561.40,224.60 562.50,225.05 C565.92,226.45 566.11,226.16 565.89,220.05 C565.70,214.69 565.42,214.01 563.09,213.05 C561.91,212.57 560.31,212.12 558.35,211.70 C559.22,211.79 559.96,211.86 560.50,211.88 L 563.50 211.99 ZM 600.91 369.25 C600.86,368.84 600.87,366.48 600.94,364.00 C601.05,360.17 601.61,359.02 604.70,356.25 C606.70,354.46 609.10,353.00 610.04,353.00 C610.90,353.00 612.97,352.44 614.82,351.71 C613.33,352.33 612.45,353.16 611.86,354.26 C610.90,356.05 611.00,356.21 612.63,355.53 C617.13,353.66 623.48,353.24 637.69,353.87 C651.86,354.50 653.05,354.70 655.43,356.93 C656.82,358.24 658.25,360.82 658.59,362.65 C659.05,365.09 659.83,365.84 660.37,365.10 C659.15,369.41 654.46,369.85 633.80,369.93 C619.94,369.98 612.24,369.61 610.52,368.83 C608.55,367.93 607.67,367.93 606.77,368.83 C605.48,370.12 601.05,370.44 600.91,369.25 ZM 419.35 370.00 C418.17,369.53 416.89,368.63 416.51,368.02 C416.02,367.22 415.10,367.36 413.36,368.50 C411.26,369.88 407.74,370.06 388.50,369.80 C373.07,369.59 365.73,369.14 364.93,368.33 C364.38,367.78 363.76,365.96 363.42,364.02 C363.49,364.14 363.58,364.24 363.67,364.33 C364.59,365.26 365.26,364.41 366.47,360.79 C368.35,355.12 372.39,353.97 391.11,353.79 C400.13,353.71 408.96,354.00 410.75,354.44 C413.62,355.16 414.61,354.55 413.53,353.46 C415.90,354.82 417.96,355.71 418.20,355.47 C418.45,355.22 419.73,356.15 421.04,357.54 C422.89,359.51 423.43,361.21 423.46,365.19 C423.50,370.60 422.82,371.40 419.35,370.00 ZM 623.09 234.17 C624.16,236.16 624.23,236.15 627.05,233.45 C629.21,231.39 630.25,230.97 631.23,231.77 C631.94,232.36 633.85,233.00 635.47,233.17 C638.37,233.49 638.41,233.43 638.13,229.14 C637.88,225.56 638.30,224.29 640.50,222.00 C643.48,218.89 643.08,218.26 637.00,216.47 C634.43,215.71 632.89,214.32 631.18,211.22 C628.62,206.58 627.45,206.01 626.53,208.92 C625.62,211.76 622.05,216.00 620.55,216.00 C619.83,216.00 617.57,216.70 615.52,217.56 L 611.79 219.11 L 616.24 221.94 C620.76,224.80 622.00,226.57 622.00,230.15 C622.00,231.24 622.49,233.05 623.09,234.17 ZM 413.37 333.75 L 412.77 340.00 L 419.00 340.00 L 419.02 329.75 C419.04,324.11 419.46,314.14 419.97,307.58 C421.07,293.39 421.65,292.51 431.70,289.89 C435.44,288.91 437.91,288.09 437.19,288.06 C436.47,288.03 436.14,287.58 436.45,287.07 C437.25,285.78 426.80,284.62 421.25,285.38 C418.72,285.73 416.57,286.12 416.46,286.25 C416.35,286.39 415.75,295.73 415.12,307.00 C414.49,318.27 413.70,330.31 413.37,333.75 ZM 653.70 266.36 C654.08,266.75 655.09,266.75 655.95,266.37 C657.91,265.49 660.82,265.55 663.92,266.55 C666.03,267.22 666.24,267.08 665.56,265.41 C663.63,260.70 663.80,259.96 667.54,256.53 L 671.32 253.07 L 666.71 251.09 C663.36,249.65 661.58,248.09 660.18,245.36 L 658.25 241.59 L 656.08 245.84 C654.75,248.45 652.88,250.45 651.21,251.06 C647.52,252.39 645.84,252.95 645.78,253.66 C645.73,254.22 646.72,254.88 648.54,256.08 C648.65,256.15 648.77,256.23 648.88,256.31 C652.33,258.59 653.00,259.57 653.00,262.35 C653.00,264.17 653.31,265.98 653.70,266.36 ZM 513.03 202.41 C519.33,201.53 526.03,201.07 527.92,201.37 C530.98,201.87 531.19,201.77 529.86,200.44 C527.58,198.15 519.51,197.28 504.82,197.73 C486.69,198.28 480.20,200.78 491.75,202.76 C499.99,204.17 500.41,204.16 513.03,202.41 ZM 446.01 628.51 C447.52,630.34 447.25,630.33 443.73,628.42 C442.20,627.59 440.56,627.15 440.09,627.44 C439.61,627.74 438.81,627.42 438.31,626.74 C437.07,625.08 437.46,620.68 438.88,620.21 C439.50,620.00 439.72,619.35 439.35,618.76 C438.96,618.12 439.16,617.98 439.86,618.41 C440.51,618.81 440.73,619.63 440.35,620.24 C439.91,620.95 440.27,621.11 441.39,620.68 C442.41,620.29 442.86,620.42 442.49,621.01 C442.16,621.56 442.61,622.00 443.50,622.00 C444.39,622.00 444.84,622.45 444.50,623.00 C444.16,623.55 444.34,624.00 444.91,624.00 C445.47,624.00 445.68,624.68 445.36,625.51 C445.04,626.34 445.33,627.69 446.01,628.51 ZM 353.35 601.85 C368.99,596.76 389.20,592.18 413.00,588.44 C414.86,588.15 416.65,587.88 418.34,587.64 C407.75,589.24 393.22,591.83 382.88,594.07 C370.23,596.82 368.31,597.48 368.71,599.00 C369.34,601.41 359.29,604.09 357.92,601.88 C357.41,601.06 356.42,600.97 353.35,601.85 ZM 504.21 219.32 C506.11,220.09 511.28,220.09 515.05,219.34 L 518.36 218.68 L 513.93 217.35 C508.22,215.65 505.53,215.66 504.08,217.40 C503.19,218.48 503.22,218.93 504.21,219.32 ZM 516.50 283.91 C510.30,282.59 499.67,282.52 497.48,283.79 C495.92,284.70 498.15,284.92 508.00,284.85 C517.54,284.79 519.55,284.57 516.50,283.91 ZM 479.88 204.10 C481.65,202.97 480.45,201.00 477.99,201.00 C474.81,201.00 470.75,203.22 472.22,204.16 C473.91,205.23 478.15,205.19 479.88,204.10 ZM 582.32 211.34 C583.65,210.02 580.66,208.00 577.38,208.00 C573.49,208.00 573.00,209.21 576.25,210.78 C578.87,212.04 581.39,212.28 582.32,211.34 ZM 452.54 616.25 C451.27,616.01 449.27,616.32 448.11,616.94 C446.44,617.84 446.00,617.78 446.00,616.70 C446.00,615.20 450.06,613.00 452.83,613.00 C453.81,613.00 454.64,613.81 454.71,614.85 C454.82,616.26 454.31,616.59 452.54,616.25 ZM 537.00 207.06 C532.33,205.86 529.94,205.68 528.50,206.40 C526.66,207.34 526.74,207.46 529.50,207.96 C531.15,208.26 534.97,208.55 538.00,208.61 L 543.50 208.72 ZM 485.20 579.80 C486.81,581.41 488.66,581.32 489.32,579.60 C490.03,577.75 489.18,577.00 486.33,577.00 C483.76,577.00 483.37,577.97 485.20,579.80 ZM 469.57 209.88 C469.87,209.40 468.99,209.00 467.62,209.00 C465.16,209.00 463.54,210.21 464.59,211.25 C465.30,211.97 468.90,210.98 469.57,209.88 ZM 396.35 667.57 C369.95,662.93 349.06,656.89 334.87,649.71 C349.06,656.63 370.66,662.86 396.35,667.57 ZM 571.00 393.00 C571.00,393.55 571.67,394.00 572.50,394.00 C573.33,394.00 574.00,393.55 574.00,393.00 C574.00,392.45 573.33,392.00 572.50,392.00 C571.67,392.00 571.00,392.45 571.00,393.00 ZM 645.52 603.46 C643.84,602.65 642.23,601.90 640.62,601.19 C649.75,605.16 657.38,609.65 660.89,613.39 C662.02,614.59 662.97,616.07 663.69,617.65 C661.03,612.82 654.96,608.03 645.52,603.46 ZM 390.19 350.11 C390.97,350.13 391.77,350.14 392.60,350.16 C403.51,350.39 407.05,350.53 409.82,351.55 C406.37,350.87 398.20,350.33 390.19,350.11 ZM 642.69 350.05 C640.66,350.02 638.26,350.00 635.40,350.00 C624.20,350.00 618.34,350.37 615.11,351.60 C615.19,351.56 615.27,351.53 615.35,351.50 C618.91,350.01 632.32,349.55 642.69,350.05 ZM 665.19 624.38 C665.17,625.09 665.07,625.75 664.90,626.36 C662.98,633.04 653.97,639.47 639.60,645.05 C644.06,643.30 648.04,641.45 651.50,639.51 C660.08,634.71 664.64,629.58 665.19,624.38 ZM 318.50 637.43 C316.24,634.32 315.35,631.15 315.81,627.95 C315.61,631.04 316.59,634.45 318.50,637.43 ZM 377.93 421.84 C378.38,428.65 378.96,434.74 379.59,438.48 C378.84,434.85 378.40,429.94 377.99,422.82 C377.97,422.50 377.95,422.17 377.93,421.84 ZM 609.68 245.91 C609.47,241.47 609.18,238.82 608.59,236.71 C608.79,237.26 608.96,237.80 609.11,238.34 C609.41,239.44 609.59,242.25 609.68,245.91 ZM 444.74 384.87 C458.25,383.91 482.41,383.52 522.00,383.56 C483.43,383.52 458.49,383.93 444.74,384.87 ZM 609.50 402.36 C608.59,399.77 607.27,397.38 605.60,395.29 C607.41,397.44 608.66,399.58 609.50,402.36 ZM 594.52 387.16 C598.63,388.57 601.15,390.54 603.78,393.29 C600.98,390.54 598.51,388.57 594.52,387.16 ZM 363.22 360.02 C363.38,358.62 363.88,357.40 364.86,355.82 C364.08,357.19 363.51,358.67 363.22,360.02 ZM 608.12 290.93 L 607.82 287.39 C607.95,287.59 608.01,287.79 608.02,287.97 C608.02,288.55 608.06,289.57 608.12,290.93 ZM 479.59 676.48 C478.39,676.44 477.36,676.40 476.50,676.35 C471.37,676.04 466.33,675.71 461.39,675.34 C470.54,675.98 475.63,676.31 479.59,676.48 ZM 562.54 299.00 C562.31,297.45 562.05,296.12 561.76,295.05 C561.82,295.21 561.89,295.38 561.95,295.55 C562.17,296.16 562.37,297.35 562.54,299.00 ZM 431.36 586.11 C433.34,585.98 434.02,586.08 432.93,586.45 C433.44,586.24 432.91,586.16 431.50,586.11 C431.45,586.11 431.41,586.11 431.36,586.11 ZM 322.85 616.73 C324.87,614.94 327.43,613.17 330.49,611.43 C327.53,613.15 324.97,614.93 322.85,616.73 ZM 659.75 356.23 C658.75,354.34 657.17,352.85 654.99,351.75 C657.24,352.88 658.81,354.35 659.75,356.23 ZM 413.62 407.82 C413.72,407.01 413.83,406.30 413.96,405.70 C414.03,405.38 414.10,405.06 414.18,404.74 C413.96,405.73 413.78,406.78 413.62,407.82 ZM 460.86 305.17 C460.78,305.90 460.71,306.65 460.64,307.42 C460.71,306.61 460.78,305.86 460.86,305.17 Z" fill="rgb(201,26,32)"/>
<path d="M 552.47 638.98 C573.39,636.01 589.65,631.13 593.98,626.52 C596.17,624.19 596.22,623.85 594.87,620.28 C592.89,615.05 585.72,611.25 575.29,609.91 C561.60,608.15 551.61,607.23 547.69,607.37 L 543.88 607.50 L 546.69 605.14 C564.40,590.26 580.47,575.65 595.15,561.03 C585.89,570.30 575.92,579.78 565.10,589.66 L 560.70 593.67 L 576.60 595.84 C615.72,601.17 641.00,612.03 641.00,623.50 C641.00,631.27 631.26,637.69 610.82,643.40 C591.43,648.82 570.22,652.08 542.00,653.99 C528.66,654.89 495.11,655.07 482.00,654.31 C457.48,652.89 425.19,647.60 409.53,642.44 C386.08,634.71 378.67,625.73 387.91,616.22 C396.92,606.93 419.00,599.90 455.41,594.72 L 464.09 593.48 C464.64,593.96 465.19,594.44 465.75,594.93 C472.98,601.21 478.67,606.73 478.39,607.18 C478.11,607.63 475.87,608.00 473.41,608.00 C468.83,608.00 459.00,612.10 459.00,614.02 C459.00,614.56 458.30,615.00 457.44,615.00 C456.43,615.00 456.17,615.44 456.69,616.25 C457.13,616.94 457.55,619.08 457.62,621.00 C457.70,622.92 457.90,626.18 458.08,628.23 C458.39,631.74 458.53,631.88 460.45,630.63 C461.58,629.90 463.17,629.44 464.00,629.62 C469.42,630.78 482.87,634.80 484.68,635.80 C486.10,636.58 491.34,636.95 499.68,636.86 C511.04,636.74 512.95,636.96 516.46,638.86 C521.65,641.66 533.32,641.70 552.47,638.98 ZM 470.23 791.33 L 469.97 819.00 L 450.00 819.00 L 450.00 729.00 L 454.75 728.86 C460.44,728.70 474.39,729.11 474.77,729.46 C474.91,729.59 479.74,740.19 485.50,753.00 C491.26,765.81 496.18,776.51 496.44,776.77 C496.70,777.03 497.59,775.73 498.42,773.87 C510.38,747.04 518.41,730.25 519.79,729.21 C520.98,728.31 524.79,727.96 532.25,728.07 L 543.00 728.23 L 543.00 819.00 L 523.00 819.00 L 523.00 791.78 C523.00,769.09 522.78,764.88 521.70,766.53 C520.98,767.61 516.38,776.94 511.46,787.25 L 502.52 806.00 L 490.50 806.00 L 487.05 798.25 C485.16,793.99 480.66,784.46 477.05,777.08 L 470.50 763.66 ZM 577.05 844.52 C571.29,847.42 558.61,847.34 553.57,844.36 C551.67,843.23 551.67,843.12 553.68,835.86 C555.11,830.70 556.13,828.61 557.11,828.87 C557.87,829.07 560.43,829.47 562.79,829.75 C566.33,830.18 567.52,829.86 569.56,827.94 C570.92,826.67 572.54,823.93 573.16,821.86 C574.17,818.51 573.95,817.23 571.24,810.30 C569.57,806.01 565.39,795.30 561.95,786.50 C558.52,777.70 554.20,766.70 552.35,762.06 C550.51,757.41 549.00,753.25 549.00,752.81 C549.00,752.36 553.44,752.00 558.86,752.00 L 568.72 752.00 L 574.94 770.25 C575.35,771.43 575.73,772.56 576.10,773.63 C581.97,790.86 583.25,794.63 583.98,794.53 C584.23,794.49 584.42,794.00 584.70,793.44 C585.23,792.37 588.56,782.63 592.09,771.79 L 598.50 752.08 L 608.75 752.04 C614.39,752.02 619.00,752.12 619.00,752.27 C619.00,752.42 617.60,756.14 615.89,760.52 C611.42,771.99 609.35,777.48 598.72,806.10 C593.49,820.17 588.53,833.00 587.69,834.60 C585.77,838.28 581.48,842.28 577.05,844.52 ZM 436.04 544.13 C434.23,542.93 433.81,542.87 434.45,543.90 C435.09,544.95 434.95,545.09 433.91,544.44 C430.59,542.39 425.52,537.65 410.00,522.07 C394.09,506.09 378.42,487.71 369.01,473.98 C366.53,470.37 363.69,466.31 362.69,464.96 C354.40,453.68 342.94,432.13 336.53,415.73 C325.15,386.65 321.82,357.08 326.45,326.50 C331.89,290.67 347.72,256.10 371.05,229.15 C377.82,221.33 394.96,205.41 398.00,204.12 C398.62,203.85 401.34,202.18 404.65,200.05 C402.24,201.64 400.19,203.08 398.72,204.24 C395.49,206.78 395.12,207.45 396.22,208.80 C397.18,209.99 397.19,210.20 396.26,209.64 C395.44,209.15 395.21,209.38 395.58,210.34 C395.88,211.14 395.29,212.40 394.26,213.15 C393.22,213.89 391.99,215.18 391.52,216.00 C391.45,216.11 391.39,216.22 391.33,216.32 C391.12,216.67 390.97,216.93 391.02,216.98 C391.15,217.11 392.60,215.92 397.72,211.69 C398.29,211.22 398.90,210.72 399.56,210.17 C402.35,207.88 404.92,206.00 405.28,206.00 C405.52,206.00 407.23,205.04 409.55,203.63 C385.20,220.72 362.15,247.94 348.85,275.43 C340.26,293.19 332.96,320.97 331.43,341.71 C330.20,358.43 334.24,387.60 340.14,404.49 C349.41,431.04 372.72,469.57 395.57,496.09 C405.43,507.54 431.17,534.50 432.23,534.50 C433.02,534.50 439.96,542.13 439.97,543.00 C439.98,545.12 438.27,545.61 436.04,544.13 ZM 460.73 336.60 C460.28,331.74 460.07,326.58 460.06,321.55 L 460.06 321.55 C460.14,316.06 460.33,311.14 460.64,307.42 C460.71,306.65 460.78,305.90 460.86,305.17 C460.91,304.69 460.97,304.24 461.03,303.82 C462.35,294.81 463.56,291.10 468.20,289.06 C473.98,286.67 485.49,286.02 509.00,286.02 C535.22,286.03 548.61,286.75 555.37,288.99 C558.72,290.24 560.56,292.11 561.76,295.05 C562.05,296.12 562.31,297.45 562.54,299.00 C563.16,305.05 563.41,317.32 563.36,330.12 C562.82,341.75 562.58,342.74 561.42,340.50 C560.57,338.88 559.63,331.13 558.95,320.19 C557.69,299.83 556.78,296.95 550.66,293.83 C545.73,291.31 532.97,290.09 511.50,290.08 C482.05,290.06 471.10,292.23 468.05,298.67 C466.91,301.08 465.29,319.79 465.06,333.25 C465.02,335.67 464.56,336.91 463.76,336.75 C463.01,336.60 462.32,338.07 461.99,340.50 C461.53,343.91 461.35,343.33 460.73,336.60 ZM 418.58 197.92 C420.92,196.43 422.99,195.14 424.04,194.50 C425.85,193.40 428.94,191.51 430.90,190.30 C433.96,188.41 437.12,183.00 435.16,183.00 C435.12,183.00 435.07,183.01 435.01,183.01 C451.40,175.76 468.73,171.11 487.38,168.91 C501.20,167.28 533.22,168.20 543.00,170.51 C549.68,172.08 550.22,172.38 548.00,173.24 C546.35,173.88 539.62,173.78 528.12,172.93 C501.64,170.98 477.96,173.48 455.40,180.59 C447.22,183.17 429.98,191.39 418.58,197.92 ZM 623.09 234.17 C622.49,233.05 622.00,231.24 622.00,230.15 C622.00,226.57 620.76,224.80 616.24,221.94 L 611.79 219.11 L 615.52 217.56 C617.57,216.70 619.83,216.00 620.55,216.00 C621.71,216.00 624.10,213.47 625.55,211.01 C624.94,212.13 624.14,213.46 623.35,214.63 L 620.78 218.41 L 623.06 220.25 C625.55,222.26 632.07,222.35 632.71,220.38 C632.92,219.76 631.94,217.89 630.54,216.23 C628.11,213.34 626.93,208.22 628.99,209.49 C629.56,209.84 629.72,209.44 629.38,208.55 C629.31,208.37 629.24,208.20 629.16,208.06 C629.72,208.73 630.38,209.78 631.18,211.22 C632.89,214.32 634.43,215.71 637.00,216.47 C643.08,218.26 643.48,218.89 640.50,222.00 C638.30,224.29 637.88,225.56 638.13,229.14 C638.41,233.43 638.37,233.49 635.47,233.17 C633.85,233.00 631.94,232.36 631.23,231.77 C630.25,230.97 629.21,231.39 627.05,233.45 C624.23,236.15 624.16,236.16 623.09,234.17 ZM 608.12 290.93 C608.33,295.34 608.81,303.36 609.34,311.78 L 609.34 311.78 C609.45,314.15 609.54,316.54 609.63,318.85 C610.23,334.83 610.13,337.00 608.77,337.00 C607.72,337.00 607.04,335.65 606.63,332.75 C606.29,330.41 605.56,321.64 604.98,313.26 C603.43,290.51 604.34,291.67 585.50,288.46 C581.97,287.86 581.76,287.67 583.72,286.93 C587.08,285.65 600.36,284.66 604.26,285.39 L 605.84 285.68 C606.76,286.20 607.49,286.83 607.82,287.39 ZM 653.70 266.36 C653.31,265.98 653.00,264.17 653.00,262.35 C653.00,259.57 652.33,258.59 648.88,256.31 C648.77,256.23 648.65,256.15 648.54,256.08 C646.72,254.88 645.73,254.22 645.78,253.66 C645.84,252.95 647.52,252.39 651.21,251.06 C652.88,250.45 654.75,248.45 656.08,245.84 L 658.25 241.59 L 660.18 245.36 C661.58,248.09 663.36,249.65 666.71,251.09 L 671.32 253.07 L 667.54 256.53 C663.80,259.96 663.63,260.70 665.56,265.41 C666.24,267.08 666.03,267.22 663.92,266.55 C660.82,265.55 657.91,265.49 655.95,266.37 C655.09,266.75 654.08,266.75 653.70,266.36 ZM 609.68 245.91 C609.78,250.16 609.75,255.57 609.62,260.78 C609.49,261.57 609.33,262.07 609.14,262.26 C608.37,263.03 607.92,262.93 607.55,261.92 C607.26,261.14 606.59,256.53 606.05,251.67 C604.70,239.48 600.32,230.34 594.32,227.16 C591.84,225.85 589.82,225.60 591.78,226.85 C593.51,227.94 592.23,231.00 590.04,231.00 C587.02,231.00 582.00,228.86 582.00,227.56 C582.00,226.88 583.19,225.78 584.65,225.11 C587.20,223.95 587.23,223.07 584.36,222.20 C588.78,223.25 592.75,224.42 594.45,225.27 C598.42,227.25 602.79,231.33 606.47,236.46 C608.57,239.39 609.27,238.72 608.31,235.98 C608.41,236.22 608.50,236.47 608.59,236.71 C609.18,238.82 609.47,241.46 609.68,245.91 ZM 426.02 230.05 C430.95,225.41 438.42,222.26 448.29,220.65 C452.83,219.91 454.34,219.60 454.74,218.64 C454.76,218.93 454.78,219.25 454.80,219.59 C455.14,225.42 454.13,226.73 448.28,228.05 C443.92,229.04 432.80,228.14 433.59,226.86 C434.97,224.62 429.70,227.24 426.02,230.05 ZM 420.36 303.05 C421.01,293.57 420.85,290.58 420.06,289.12 C417.45,284.24 416.52,287.02 415.05,308.19 C415.07,307.79 415.09,307.40 415.12,307.00 C415.75,295.73 416.35,286.39 416.46,286.25 C416.57,286.12 418.72,285.73 421.25,285.38 C426.80,284.62 437.25,285.78 436.45,287.07 C436.14,287.58 436.47,288.03 437.19,288.06 C437.91,288.09 435.44,288.91 431.70,289.89 C422.85,292.20 421.34,293.15 420.36,303.05 ZM 459.00 216.23 C459.00,219.07 459.17,219.19 462.25,218.62 C463.89,218.31 472.45,217.45 481.92,216.63 C481.18,216.72 480.54,216.82 480.00,216.92 C477.52,217.38 476.29,217.81 477.25,217.87 C478.21,217.94 479.00,218.60 479.00,219.34 C479.00,220.19 475.76,221.45 470.01,222.84 C469.58,222.94 469.16,223.04 468.76,223.14 C462.07,224.75 459.42,225.39 458.47,224.40 C457.85,223.75 457.96,222.39 458.15,220.14 C458.17,219.94 458.19,219.72 458.21,219.50 C458.46,216.48 458.90,213.77 459.19,213.48 C459.57,213.09 461.03,212.64 463.25,212.17 C459.43,213.13 459.00,213.54 459.00,216.23 ZM 644.68 417.00 C645.76,421.28 646.87,412.09 647.20,396.21 C647.23,394.87 647.25,393.65 647.27,392.55 L 647.16 402.00 C646.92,421.23 646.54,430.53 645.26,436.30 C644.97,437.16 644.62,437.63 644.23,437.76 C643.23,438.09 643.02,432.44 643.23,410.34 C643.36,397.50 643.44,390.58 643.70,386.81 C643.63,389.20 643.68,392.85 643.78,398.50 C643.93,407.30 644.34,415.62 644.68,417.00 ZM 377.93 421.84 C377.77,418.90 377.63,416.05 377.50,413.31 C377.55,413.87 377.60,414.41 377.65,414.91 C378.12,419.42 378.60,420.80 379.40,420.00 C380.14,419.26 380.39,413.32 380.17,401.72 C379.84,384.68 379.67,383.04 378.01,383.00 C378.02,383.00 378.03,383.00 378.03,383.00 C379.69,383.00 379.86,384.50 380.50,405.00 C381.28,429.75 381.48,433.33 382.46,439.75 C383.33,445.47 382.81,446.32 380.74,442.45 C380.29,441.31 379.91,440.01 379.59,438.48 C378.96,434.74 378.38,428.65 377.93,421.85 ZM 653.16 256.00 C655.01,257.39 659.92,256.75 661.60,254.89 C663.43,252.87 662.77,249.84 660.50,249.85 C659.95,249.85 658.77,249.20 657.89,248.40 C656.45,247.10 656.07,247.24 654.42,249.72 C652.51,252.59 652.01,255.13 653.16,256.00 ZM 415.04 257.07 C416.77,260.30 418.00,259.24 418.00,254.53 C418.00,252.67 418.44,249.08 419.05,245.60 C418.31,250.50 418.03,256.06 418.37,261.41 C418.72,266.96 419.29,272.96 419.62,274.75 C420.52,279.59 418.31,278.80 416.83,273.75 C416.15,271.41 415.46,266.80 415.30,263.50 C415.22,261.80 415.08,259.36 414.92,256.81 C414.96,256.91 414.99,256.99 415.04,257.07 ZM 446.01 628.51 C445.33,627.69 445.04,626.34 445.36,625.51 C445.68,624.68 445.47,624.00 444.91,624.00 C444.34,624.00 444.16,623.55 444.50,623.00 C444.84,622.45 444.39,622.00 443.50,622.00 C442.61,622.00 442.16,621.56 442.49,621.01 C442.86,620.42 442.41,620.29 441.39,620.68 C440.27,621.11 439.91,620.95 440.35,620.24 C440.73,619.63 440.51,618.81 439.86,618.41 C439.16,617.98 438.96,618.12 439.35,618.76 C439.72,619.35 439.50,620.00 438.88,620.21 C437.46,620.68 437.07,625.08 438.31,626.74 C438.81,627.42 439.61,627.74 440.09,627.44 C440.56,627.15 442.20,627.59 443.73,628.42 C447.25,630.33 447.52,630.34 446.01,628.51 ZM 565.78 217.76 C565.82,218.41 565.86,219.17 565.89,220.05 C566.11,226.16 565.92,226.45 562.50,225.05 C561.40,224.60 559.64,223.28 558.60,222.12 C556.70,220.01 556.70,220.00 559.60,219.93 C565.73,219.79 553.51,217.33 541.03,216.10 C546.15,216.45 550.74,216.91 554.50,217.47 C560.00,218.29 564.83,218.97 565.24,218.98 C565.51,218.99 565.71,218.49 565.78,217.76 ZM 413.37 333.75 C413.51,332.24 413.75,329.08 414.02,325.06 C413.70,331.45 413.58,336.02 413.77,336.35 C414.03,336.82 415.05,336.37 416.03,335.35 C417.39,333.94 418.07,330.66 418.86,321.50 C419.17,317.98 419.44,314.85 419.67,312.06 C419.30,318.11 419.03,325.29 419.02,329.75 L 419.00 340.00 L 412.77 340.00 ZM 504.21 219.32 C503.22,218.93 503.19,218.48 504.08,217.40 C505.53,215.66 508.22,215.65 513.93,217.35 L 518.36 218.68 L 515.05 219.34 C511.28,220.09 506.11,220.09 504.21,219.32 ZM 452.54 616.25 C454.31,616.59 454.82,616.26 454.71,614.85 C454.64,613.81 453.81,613.00 452.83,613.00 C450.06,613.00 446.00,615.20 446.00,616.70 C446.00,617.78 446.44,617.84 448.11,616.94 C449.27,616.32 451.27,616.01 452.54,616.25 ZM 413.62 407.82 C413.78,406.78 413.96,405.73 414.18,404.74 C414.52,403.34 414.97,402.00 415.51,400.72 C414.52,403.37 414.00,406.30 414.00,409.47 C414.00,412.51 414.39,415.00 414.86,415.00 C415.34,415.00 416.50,412.53 417.45,409.52 C417.99,407.81 418.78,405.80 419.59,404.05 C418.35,406.89 417.46,410.25 417.02,413.90 C416.44,418.81 416.05,419.92 415.51,418.25 C415.10,417.01 414.31,416.00 413.74,416.00 C413.42,416.00 413.24,415.40 413.17,414.43 C413.26,411.83 413.41,409.59 413.62,407.82 ZM 485.20 579.80 C483.37,577.97 483.76,577.00 486.33,577.00 C489.18,577.00 490.03,577.75 489.32,579.60 C488.66,581.32 486.81,581.41 485.20,579.80 ZM 660.76 362.43 C660.69,363.45 660.58,364.34 660.37,365.10 C659.83,365.84 659.05,365.09 658.59,362.65 C658.39,361.57 657.82,360.24 657.09,359.05 C659.21,361.19 660.64,361.51 660.74,359.92 C660.81,360.70 660.82,361.54 660.76,362.43 ZM 528.62 208.61 C512.78,208.09 493.71,208.56 479.42,209.83 C482.80,209.48 486.39,209.16 490.00,208.90 C501.77,208.06 515.84,208.04 528.62,208.61 ZM 399.65 529.11 C394.27,522.95 389.24,516.98 384.87,511.50 C373.87,497.73 363.99,483.82 355.39,470.13 C367.54,489.33 382.39,509.16 399.65,529.11 ZM 571.00 393.00 C571.00,392.45 571.67,392.00 572.50,392.00 C573.33,392.00 574.00,392.45 574.00,393.00 C574.00,393.55 573.33,394.00 572.50,394.00 C571.67,394.00 571.00,393.55 571.00,393.00 ZM 654.63 356.24 C652.62,354.66 650.25,354.43 637.86,353.88 L 653.22 354.56 ZM 438.11 391.94 C438.85,391.81 441.26,391.66 444.98,391.52 C440.22,391.89 436.67,392.36 433.88,392.97 C435.25,392.55 436.67,392.20 438.11,391.94 ZM 455.59 585.98 L 454.63 585.16 C449.69,580.93 443.85,575.50 437.58,569.35 C443.18,574.73 449.09,580.18 455.59,585.98 ZM 423.65 188.53 C418.37,191.48 412.17,195.19 407.02,198.50 C407.34,198.28 407.67,198.07 408.00,197.85 C413.13,194.45 418.35,191.35 423.65,188.53 ZM 377.73 383.31 C377.24,384.83 376.99,391.61 377.01,398.86 C377.00,398.33 376.99,397.80 376.98,397.28 C376.92,390.14 377.14,384.65 377.73,383.31 ZM 561.33 390.53 C578.48,390.87 587.25,391.67 592.25,393.05 C587.52,391.74 578.19,390.94 561.33,390.53 ZM 422.18 225.85 C423.77,224.19 425.52,222.72 427.38,221.54 C428.48,220.83 429.89,220.10 431.47,219.40 C427.84,221.17 424.73,223.34 422.18,225.85 ZM 571.10 219.76 C573.64,220.02 577.00,220.60 580.40,221.31 C579.67,221.18 578.86,221.05 577.99,220.91 C574.76,220.41 572.58,220.08 571.10,219.76 ZM 591.99 218.82 C588.64,217.46 583.81,216.09 579.38,215.16 C579.96,215.27 580.56,215.39 581.18,215.52 C585.33,216.39 588.89,217.46 591.99,218.82 ZM 568.10 215.60 C568.10,215.92 568.13,216.30 568.18,216.75 C568.33,218.05 568.65,218.82 569.32,219.26 C568.74,219.03 568.42,218.77 568.23,218.43 C568.00,217.99 568.00,217.43 568.00,216.64 L 568.00 216.53 C568.00,216.18 568.03,215.87 568.10,215.60 ZM 557.11 211.55 C557.54,211.61 557.96,211.65 558.35,211.70 C560.31,212.12 561.91,212.57 563.09,213.05 C564.19,213.50 564.83,213.89 565.23,214.75 C564.34,213.39 562.19,212.54 557.11,211.55 ZM 454.21 215.39 C452.94,213.70 449.55,213.82 442.32,215.60 C446.23,214.56 449.80,213.96 451.75,214.18 C453.12,214.34 453.81,214.53 454.21,215.39 ZM 626.74 527.09 C640.75,510.76 653.31,494.15 664.77,476.91 C653.21,494.31 640.84,510.69 626.74,527.09 ZM 642.69 350.05 C643.31,350.08 643.92,350.12 644.52,350.15 C642.28,350.06 639.71,350.01 636.76,350.00 C639.03,350.01 640.99,350.02 642.69,350.05 ZM 499.61 215.54 C503.57,215.41 507.65,215.32 511.74,215.30 C507.62,215.34 503.49,215.42 499.61,215.54 ZM 575.51 214.44 C573.70,214.16 572.10,214.00 570.87,214.00 L 570.80 214.00 C571.91,213.95 573.44,214.10 575.51,214.44 ZM 420.68 238.27 C421.05,237.01 421.42,236.01 421.87,235.11 C421.44,236.05 421.05,237.11 420.68,238.27 ZM 627.64 207.17 C627.22,207.39 626.83,207.97 626.53,208.90 C626.85,207.89 627.21,207.30 627.64,207.17 ZM 420.96 401.37 C421.09,401.15 421.22,400.95 421.34,400.77 C421.35,400.75 421.36,400.73 421.38,400.71 C421.24,400.93 421.10,401.15 420.96,401.37 Z" fill="rgb(248,130,39)"/>
<path d="M 0.00 512.00 L 0.00 0.00 L 512.00 0.00 L 1024.00 0.00 L 1024.00 512.00 L 1024.00 1024.00 L 512.00 1024.00 L 0.00 1024.00 L 0.00 512.00 ZM 577.05 844.52 C581.48,842.28 585.77,838.28 587.69,834.60 C588.53,833.00 593.49,820.17 598.72,806.10 C609.35,777.48 611.42,771.99 615.89,760.52 C617.60,756.14 619.00,752.42 619.00,752.27 C619.00,752.12 614.39,752.02 608.75,752.04 L 598.50 752.08 L 592.09 771.79 C588.56,782.63 585.23,792.37 584.70,793.44 C583.54,795.74 584.02,796.87 574.94,770.25 L 568.72 752.00 L 558.86 752.00 C553.44,752.00 549.00,752.36 549.00,752.81 C549.00,753.25 550.51,757.41 552.35,762.06 C554.20,766.70 558.52,777.70 561.95,786.50 C565.39,795.30 569.57,806.01 571.24,810.30 C573.95,817.23 574.17,818.51 573.16,821.86 C572.54,823.93 570.92,826.67 569.56,827.94 C567.52,829.86 566.33,830.18 562.79,829.75 C560.43,829.47 557.87,829.07 557.11,828.87 C556.13,828.61 555.11,830.70 553.68,835.86 C551.67,843.12 551.67,843.23 553.57,844.36 C558.61,847.34 571.29,847.42 577.05,844.52 ZM 273.22 816.21 C285.66,810.09 292.32,799.21 292.34,785.00 C292.35,774.87 288.83,766.87 281.34,760.03 C273.61,752.96 266.97,750.70 255.50,751.22 C240.60,751.89 230.67,757.83 224.92,769.52 C217.29,785.02 221.63,804.13 234.86,813.26 C242.31,818.40 248.25,820.07 258.03,819.76 C265.33,819.54 267.50,819.03 273.22,816.21 ZM 344.14 818.57 C353.47,815.74 362.21,808.18 366.20,799.50 C369.66,791.96 369.50,778.63 365.85,770.85 C362.48,763.66 356.34,757.52 349.15,754.15 C344.16,751.81 342.27,751.50 333.00,751.50 C324.35,751.50 321.68,751.88 317.82,753.66 C303.51,760.27 295.05,776.41 298.01,791.43 C300.68,805.03 308.12,813.46 321.95,818.55 C326.70,820.30 338.40,820.31 344.14,818.57 ZM 670.61 818.52 C679.21,815.97 684.54,811.67 688.11,804.43 C690.96,798.64 691.22,797.34 690.78,791.26 C689.71,776.30 683.97,771.18 659.76,763.62 C650.85,760.83 647.63,759.36 646.43,757.54 C644.21,754.15 644.98,750.08 648.31,747.61 C653.60,743.67 667.48,745.94 676.23,752.16 C677.82,753.29 679.22,754.06 679.35,753.86 C687.12,741.94 688.38,739.16 686.87,737.35 C684.52,734.51 673.79,729.86 666.14,728.37 C642.54,723.77 624.51,735.31 624.63,754.93 C624.67,762.01 626.65,767.93 630.30,771.84 C633.53,775.31 642.21,779.35 653.00,782.42 C664.34,785.63 668.17,787.70 669.42,791.26 C671.68,797.68 664.88,802.68 655.25,801.69 C649.46,801.09 640.44,797.34 635.21,793.34 C633.35,791.93 631.50,791.16 631.09,791.63 C630.69,792.11 628.01,795.51 625.14,799.19 L 619.93 805.88 L 625.88 809.92 C631.94,814.04 639.44,817.42 645.91,818.95 C651.80,820.34 665.26,820.11 670.61,818.52 ZM 748.00 816.82 C751.03,815.39 754.97,812.94 756.76,811.36 L 760.02 808.50 L 754.93 802.75 C752.13,799.59 749.37,797.00 748.80,797.00 C748.23,797.00 746.25,798.33 744.40,799.96 C734.95,808.25 720.97,804.75 717.54,793.25 L 716.87 791.00 L 740.58 791.00 L 764.29 791.00 L 763.71 783.25 C762.87,771.90 760.64,766.49 754.07,759.93 C747.34,753.19 741.77,751.00 731.36,751.00 C720.82,751.00 713.94,753.78 706.96,760.88 C702.39,765.51 701.00,767.79 699.07,773.78 C697.07,780.00 696.83,782.19 697.43,788.78 C697.81,793.03 698.96,798.38 699.97,800.68 C703.48,808.60 712.18,816.23 721.00,819.12 C722.38,819.57 727.78,819.82 733.00,819.68 C740.80,819.46 743.49,818.95 748.00,816.82 ZM 801.73 818.47 C803.74,817.63 806.88,815.80 808.70,814.42 L 812.00 811.90 L 812.00 815.45 L 812.00 819.00 L 821.00 819.00 L 830.00 819.00 L 830.00 796.18 C830.00,770.12 829.16,765.39 823.37,758.98 C814.31,748.96 793.47,748.21 776.26,757.29 L 772.03 759.53 L 775.62 765.51 C777.59,768.81 779.32,771.62 779.46,771.77 C779.60,771.93 782.59,770.69 786.11,769.03 C796.24,764.23 806.11,765.44 809.43,771.87 C812.40,777.61 812.20,777.72 798.25,778.20 C782.15,778.75 776.29,780.90 771.86,787.88 C769.49,791.62 769.00,793.47 769.00,798.74 C769.00,808.69 773.74,815.73 782.50,818.79 C787.05,820.38 797.57,820.20 801.73,818.47 ZM 879.36 817.17 C883.28,815.43 884.08,814.67 883.47,813.26 C883.06,812.29 882.03,809.03 881.18,806.00 C880.33,802.97 879.56,800.38 879.47,800.23 C879.37,800.08 877.99,800.64 876.40,801.48 C872.61,803.45 869.10,803.40 866.83,801.35 C865.20,799.87 865.00,797.91 865.00,783.35 L 865.00 767.00 L 873.00 767.00 L 881.00 767.00 L 881.00 759.50 L 881.00 752.00 L 873.00 752.00 L 865.00 752.00 L 865.00 742.46 L 865.00 732.93 L 855.29 733.21 L 845.58 733.50 L 845.87 742.69 L 846.16 751.88 L 841.33 752.19 L 836.50 752.50 L 836.50 760.00 L 836.50 767.50 L 841.25 767.80 L 846.00 768.11 L 846.00 786.59 C846.00,809.91 847.30,813.81 856.50,818.18 C861.77,820.69 872.50,820.21 879.36,817.17 ZM 199.24 816.15 C209.26,812.16 214.94,804.25 214.98,794.22 C215.02,785.04 209.57,776.33 202.28,773.93 L 198.92 772.82 L 203.39 768.89 C215.16,758.52 212.94,740.16 198.97,732.50 L 193.50 729.50 L 168.25 729.17 L 143.00 728.85 L 142.83 740.67 C142.74,747.18 142.63,767.49 142.58,785.82 L 142.50 819.14 L 168.00 818.79 C191.76,818.46 193.89,818.28 199.24,816.15 ZM 397.00 809.63 C397.00,800.31 397.02,800.23 400.50,796.43 C404.60,791.95 403.34,790.87 413.50,807.48 L 420.50 818.91 L 431.75 818.96 C437.94,818.98 443.00,818.65 443.00,818.22 C443.00,817.79 437.38,809.16 430.50,799.04 C423.62,788.92 418.00,780.37 418.00,780.03 C418.00,779.69 421.20,775.83 425.11,771.45 C429.02,767.08 434.47,760.91 437.21,757.75 L 442.20 752.00 L 430.73 752.00 L 419.26 752.00 L 408.94 763.25 C403.26,769.44 398.26,774.65 397.81,774.83 C397.36,775.02 397.00,763.88 397.00,750.08 L 397.00 725.00 L 387.50 725.00 L 378.00 725.00 L 378.00 772.00 L 378.00 819.00 L 387.50 819.00 L 397.00 819.00 L 397.00 809.63 ZM 470.23 791.33 L 470.50 763.66 L 477.05 777.08 C480.66,784.46 485.16,793.99 487.05,798.25 L 490.50 806.00 L 496.51 806.00 L 502.52 806.00 L 511.46 787.25 C516.38,776.94 520.98,767.61 521.70,766.53 C522.78,764.88 523.00,769.09 523.00,791.78 L 523.00 819.00 L 533.00 819.00 L 543.00 819.00 L 543.00 773.62 L 543.00 728.23 L 532.25 728.07 C524.79,727.96 520.98,728.31 519.79,729.21 C518.41,730.25 510.38,747.04 498.42,773.87 C497.59,775.73 496.70,777.03 496.44,776.77 C496.18,776.51 491.26,765.81 485.50,753.00 C479.74,740.19 474.91,729.59 474.77,729.46 C474.39,729.11 460.44,728.70 454.75,728.86 L 450.00 729.00 L 450.00 774.00 L 450.00 819.00 L 459.98 819.00 L 469.97 819.00 L 470.23 791.33 ZM 557.50 676.00 C597.66,673.70 642.98,666.47 668.44,658.29 C695.88,649.47 709.00,640.11 709.00,629.33 C709.00,624.20 705.76,618.43 700.79,614.69 C693.54,609.24 676.60,602.05 661.50,598.00 C643.53,593.18 600.70,585.78 592.53,586.07 C591.41,586.11 597.47,587.94 606.00,590.14 C626.20,595.34 634.53,598.15 645.52,603.46 C669.56,615.08 671.73,628.19 651.50,639.51 C633.72,649.47 602.12,657.10 562.50,661.02 C541.34,663.11 498.98,663.39 473.88,661.61 C423.72,658.05 390.56,650.38 371.48,637.92 C356.37,628.06 355.95,618.55 370.19,608.87 C373.66,606.50 380.47,602.86 385.32,600.76 C393.27,597.33 418.50,589.66 430.00,587.18 C439.24,585.19 428.70,585.97 413.00,588.44 C365.87,595.85 332.79,606.54 321.50,618.00 C311.56,628.10 314.38,637.76 330.00,647.04 C354.93,661.86 406.82,672.24 476.50,676.35 C489.27,677.10 542.26,676.87 557.50,676.00 ZM 542.00 653.99 C570.22,652.08 591.43,648.82 610.82,643.40 C631.26,637.69 641.00,631.27 641.00,623.50 C641.00,612.03 615.72,601.17 576.60,595.84 L 560.70 593.67 L 565.10 589.66 C609.14,549.49 638.99,515.73 664.77,476.91 C693.80,433.21 706.09,400.22 708.52,359.50 C710.26,330.18 700.95,290.23 685.79,262.00 C668.62,230.02 644.35,204.07 615.27,186.62 C596.62,175.43 571.89,166.34 549.00,162.28 C536.32,160.04 531.86,159.72 513.50,159.79 C491.08,159.88 479.37,161.19 461.86,165.57 C427.69,174.12 398.16,190.77 373.43,215.45 C327.72,261.05 307.19,328.09 320.03,389.86 C327.28,424.72 350.75,468.76 384.87,511.50 C404.02,535.49 435.81,569.07 454.63,585.16 L 464.32 593.45 L 455.41 594.72 C419.00,599.90 396.92,606.93 387.91,616.22 C378.67,625.73 386.08,634.71 409.53,642.44 C425.19,647.60 457.48,652.89 482.00,654.31 C495.11,655.07 528.66,654.89 542.00,653.99 ZM 252.53 802.45 C245.07,799.88 240.98,793.79 241.02,785.28 C241.08,773.20 250.66,765.02 261.09,768.14 C271.38,771.23 276.09,785.75 270.02,795.73 C266.30,801.84 258.96,804.66 252.53,802.45 ZM 328.50 802.46 C316.62,798.40 313.48,780.96 322.99,771.90 C327.29,767.81 330.93,766.74 336.42,767.98 C343.81,769.65 349.00,776.95 349.00,785.65 C349.00,797.86 339.01,806.06 328.50,802.46 ZM 717.52 776.75 C720.57,766.17 733.97,762.65 740.94,770.59 C742.62,772.50 744.00,775.18 744.00,776.53 L 744.00 779.00 L 730.43 779.00 L 716.87 779.00 L 717.52 776.75 ZM 792.17 805.31 C791.44,805.02 790.01,803.43 789.01,801.78 C787.55,799.38 787.39,798.18 788.20,795.86 C789.70,791.55 793.61,790.00 802.95,790.00 L 811.00 790.00 L 811.00 793.60 C811.00,797.82 808.05,802.41 803.97,804.52 C801.18,805.96 794.86,806.38 792.17,805.31 ZM 172.25 801.23 L 162.00 800.93 L 162.00 790.97 L 162.00 781.00 L 174.05 781.00 C187.66,781.00 190.93,782.04 193.59,787.18 C194.94,789.78 195.02,790.98 194.07,794.16 C192.19,800.44 188.32,801.69 172.25,801.23 ZM 162.21 755.75 L 162.50 746.50 L 171.49 746.21 C186.21,745.73 192.07,749.42 190.33,758.08 C189.20,763.75 186.13,765.00 173.33,765.00 L 161.92 765.00 L 162.21 755.75 ZM 322.68 625.25 C324.34,620.54 328.30,617.15 337.42,612.62 C342.71,609.99 347.59,608.03 348.27,608.26 C348.95,608.49 347.92,609.49 346.00,610.48 C344.08,611.47 341.08,613.45 339.34,614.89 C334.26,619.09 323.40,627.00 322.70,627.00 C322.35,627.00 322.34,626.21 322.68,625.25 ZM 377.65 414.91 C376.66,405.45 376.87,383.00 377.94,383.00 C379.66,383.00 379.83,384.44 380.17,401.72 C380.39,413.32 380.14,419.26 379.40,420.00 C378.60,420.80 378.12,419.42 377.65,414.91 ZM 644.68 417.00 C644.34,415.62 643.93,407.30 643.78,398.50 C643.51,383.15 643.58,382.49 645.50,382.21 C647.43,381.93 647.49,382.41 647.20,396.21 C646.87,412.09 645.76,421.28 644.68,417.00 ZM 414.00 409.47 C414.00,397.48 421.40,388.91 434.16,386.09 C442.36,384.28 469.60,383.50 522.00,383.56 C589.04,383.64 594.60,384.30 603.78,393.29 C608.42,397.82 611.00,404.29 611.00,411.35 C611.00,416.23 610.22,415.59 607.85,408.75 C605.65,402.41 597.90,394.60 592.25,393.05 C583.36,390.60 562.58,389.99 504.00,390.47 C470.73,390.74 441.07,391.40 438.11,391.94 C430.71,393.29 423.93,396.86 421.34,400.77 C420.15,402.57 418.40,406.50 417.45,409.52 C416.50,412.53 415.34,415.00 414.86,415.00 C414.39,415.00 414.00,412.51 414.00,409.47 ZM 363.67 364.33 C362.23,362.90 363.12,358.29 365.49,354.79 C367.52,351.81 368.80,351.00 372.34,350.47 C379.84,349.35 408.18,350.42 411.25,351.95 C415.09,353.86 414.77,355.44 410.75,354.44 C408.96,354.00 400.13,353.71 391.11,353.79 C372.39,353.97 368.35,355.12 366.47,360.79 C365.26,364.41 364.59,365.26 363.67,364.33 ZM 655.86 357.70 L 653.22 354.56 L 637.86 353.88 C623.50,353.24 617.14,353.66 612.63,355.53 C611.00,356.21 610.90,356.05 611.86,354.26 C613.68,350.86 618.41,350.00 635.18,350.00 C654.97,350.00 658.77,351.24 660.53,358.26 C661.47,362.02 659.27,361.76 655.86,357.70 ZM 413.77 336.35 C413.51,335.88 413.85,326.73 414.53,316.00 C416.33,287.74 417.16,283.70 420.06,289.12 C421.22,291.28 421.02,296.75 418.86,321.50 C418.07,330.66 417.39,333.94 416.03,335.35 C415.05,336.37 414.03,336.82 413.77,336.35 ZM 415.04 257.07 C413.73,254.62 413.70,242.62 414.99,237.97 C417.96,227.28 427.06,219.55 440.90,215.97 C451.07,213.33 454.39,213.58 454.79,217.02 C455.07,219.41 454.73,219.60 448.29,220.65 C438.22,222.29 430.66,225.53 425.74,230.32 C421.94,234.02 421.21,235.46 419.71,242.29 C418.77,246.56 418.00,252.07 418.00,254.53 C418.00,259.24 416.77,260.30 415.04,257.07 ZM 653.16 256.00 C652.01,255.13 652.51,252.59 654.42,249.72 C656.07,247.24 656.45,247.10 657.89,248.40 C658.77,249.20 659.95,249.85 660.50,249.85 C662.77,249.84 663.43,252.87 661.60,254.89 C659.92,256.75 655.01,257.39 653.16,256.00 ZM 606.47 236.46 C602.79,231.33 598.42,227.25 594.45,225.27 C590.95,223.52 577.87,220.44 571.00,219.75 C569.09,219.56 568.42,218.85 568.18,216.75 C567.90,214.29 568.18,214.00 570.87,214.00 C576.16,214.00 588.34,216.97 593.68,219.56 C599.38,222.33 603.88,226.89 607.05,233.10 C609.57,238.03 609.18,240.25 606.47,236.46 ZM 623.06 220.25 L 620.78 218.41 L 623.35 214.63 C624.76,212.55 626.19,209.98 626.52,208.92 C627.26,206.60 628.57,206.43 629.38,208.55 C629.72,209.44 629.56,209.84 628.99,209.49 C626.93,208.22 628.11,213.34 630.54,216.23 C631.94,217.89 632.92,219.76 632.71,220.38 C632.07,222.35 625.55,222.26 623.06,220.25 ZM 459.00 216.23 C459.00,213.54 459.43,213.13 463.25,212.17 C479.21,208.15 529.44,207.06 549.79,210.29 C563.24,212.42 565.51,213.31 565.78,216.56 C565.89,217.90 565.65,218.99 565.24,218.98 C564.83,218.97 560.00,218.29 554.50,217.47 C538.26,215.04 506.45,214.56 484.50,216.41 C474.05,217.29 464.04,218.28 462.25,218.62 C459.17,219.19 459.00,219.07 459.00,216.23 ZM 391.52 216.00 C391.99,215.18 393.22,213.89 394.26,213.15 C395.29,212.40 395.88,211.14 395.58,210.34 C395.21,209.38 395.44,209.15 396.26,209.64 C397.19,210.20 397.18,209.99 396.22,208.80 C395.12,207.45 395.49,206.78 398.72,204.24 C406.72,197.93 432.33,183.01 435.16,183.00 C437.12,183.00 433.96,188.41 430.90,190.30 C428.94,191.51 425.85,193.40 424.04,194.50 C422.23,195.60 417.42,198.64 413.34,201.25 C409.27,203.86 405.64,206.00 405.28,206.00 C404.92,206.00 402.35,207.88 399.56,210.17 C389.93,218.11 390.57,217.65 391.52,216.00 Z" fill="rgb(253,253,253)"/>
</g>
</svg>